<svg id="visual" viewBox="0 0 900 600" width="900" height="600" xmlns="http://www.w3.org/2000/svg" xmlns:xlink="http://www.w3.org/1999/xlink" version="1.1"><rect x="0" y="0" width="900" height="600" fill="#182d5f"></rect><path d="M0 308L113 308L113 368L225 368L225 325L338 325L338 319L450 319L450 331L563 331L563 330L675 330L675 327L788 327L788 377L900 377L900 341L900 601L900 601L788 601L788 601L675 601L675 601L563 601L563 601L450 601L450 601L338 601L338 601L225 601L225 601L113 601L113 601L0 601Z" fill="#013179"></path><path d="M0 420L113 420L113 408L225 408L225 427L338 427L338 392L450 392L450 389L563 389L563 451L675 451L675 451L788 451L788 396L900 396L900 395L900 601L900 601L788 601L788 601L675 601L675 601L563 601L563 601L450 601L450 601L338 601L338 601L225 601L225 601L113 601L113 601L0 601Z" fill="#004bba"></path><path d="M0 526L113 526L113 499L225 499L225 497L338 497L338 545L450 545L450 516L563 516L563 491L675 491L675 543L788 543L788 536L900 536L900 541L900 601L900 601L788 601L788 601L675 601L675 601L563 601L563 601L450 601L450 601L338 601L338 601L225 601L225 601L113 601L113 601L0 601Z" fill="#0066ff"></path></svg>